<svg width="33" height="35" viewBox="0 0 33 35" fill="none" xmlns="http://www.w3.org/2000/svg">
<path fill-rule="evenodd" clip-rule="evenodd" d="M13.8839 7.2254C13.6913 6.97818 13.3222 6.9268 13.062 7.10874C11.299 8.34207 8.539 9.8101 5.40874 9.8101H5.38816C5.02498 9.8101 4.68238 9.94066 4.42066 10.1767C4.15306 10.4198 4.00307 10.7434 4.00014 11.0892C3.99867 11.2517 3.98543 15.1101 5.47786 19.4614C6.4836 22.3947 7.9466 24.8711 9.8258 26.8181C9.94343 26.9389 10.1037 27 10.2625 27C10.4037 27 10.5463 26.9514 10.6581 26.8556C10.8977 26.6486 10.9154 26.2972 10.6963 26.0709C8.93038 24.2417 7.55116 21.9027 6.59677 19.1209C5.16169 14.9389 5.17494 11.2544 5.17641 11.099C5.17641 11.0407 5.21317 10.999 5.23375 10.9796C5.25728 10.9587 5.30874 10.9226 5.39108 10.9226H5.40432C8.85968 10.9226 11.8549 9.33515 13.7603 8.00322C14.0235 7.81989 14.0779 7.47267 13.8838 7.22545L13.8839 7.2254Z" fill="#0E77AF"/>
<path fill-rule="evenodd" clip-rule="evenodd" d="M16.3021 0.351363C16.1076 0.133983 15.8289 0.00683546 15.5324 0H15.4984C15.221 0 14.945 0.118943 14.7492 0.318554C14.6907 0.377343 8.88832 6.24542 1.67432 6.24542C1.48802 6.24542 1.30173 6.24132 1.1127 6.23311C1.09503 6.23175 1.07735 6.23175 1.06103 6.23175C0.508952 6.23175 0.0452271 6.66105 0.0180393 7.20656C0.00716069 7.42804 -0.23353 12.6875 1.4309 18.7372C3.66918 26.8691 8.31558 32.4691 14.8699 34.9316C14.9909 34.9768 15.1201 35 15.2479 35C15.339 35 15.4274 34.9891 15.5158 34.9658C15.6668 34.9275 19.0812 34.0156 22.6821 30.5415C22.232 30.4841 21.7914 30.3952 21.3631 30.2776C18.1757 33.1255 15.2791 33.8966 15.2505 33.9061C9.03595 31.5723 4.6208 26.2254 2.47884 18.4446C0.946335 12.8747 1.07552 7.97892 1.09999 7.32652C1.29037 7.33335 1.48212 7.33746 1.67247 7.33746C9.18829 7.33746 15.0805 1.53239 15.5073 1.10049C20.1539 6.27101 29.2537 7.7312 29.912 7.83095C29.8752 9.57821 29.7529 11.2079 29.5625 12.7281C29.9065 12.9728 30.237 13.2394 30.5511 13.5307C30.8013 11.7643 30.9604 9.85569 30.9998 7.7872C31.0093 7.27176 30.6232 6.8288 30.0996 6.75363C30.0112 6.74132 20.8081 5.38506 16.3014 0.351114L16.3021 0.351363Z" fill="#0E77AF"/>
<path fill-rule="evenodd" clip-rule="evenodd" d="M33 21C33 16.0302 29.195 12 24.5013 12H24.5C19.8049 12 16 16.0288 16 21C16 25.9698 19.8049 30 24.5 30C29.1937 30 33 25.9698 33 21H33ZM29.9958 26.0231L28.9718 24.9389C28.7646 24.7195 28.4286 24.7195 28.2201 24.9389C28.0129 25.1582 28.0129 25.5154 28.2201 25.7348L29.2441 26.819C29.2879 26.8654 29.337 26.8992 29.3902 26.9259C28.1988 28.0298 26.6741 28.7371 24.998 28.8553C25.018 28.7962 25.0312 28.7329 25.0312 28.6668V27.134C25.0312 26.8232 24.7935 26.5715 24.5 26.5715C24.2065 26.5715 23.9687 26.8232 23.9687 27.134V28.6668C23.9687 28.7329 23.982 28.7962 24.0019 28.8553C22.3258 28.7371 20.8011 28.0298 19.6098 26.9259C19.6616 26.8992 19.7121 26.8654 19.7559 26.819L20.7799 25.7348C20.9871 25.5154 20.9871 25.1582 20.7799 24.9389C20.5727 24.7195 20.2367 24.7195 20.0282 24.9389L19.0042 26.0231C18.9604 26.0695 18.9285 26.1215 18.9033 26.1778C17.8607 24.9164 17.1927 23.302 17.0811 21.5273C17.1369 21.5484 17.1966 21.5624 17.259 21.5624H18.7067C19.0002 21.5624 19.2379 21.3107 19.2379 20.9999C19.2379 20.6892 19.0002 20.4374 18.7067 20.4374H17.259C17.1966 20.4374 17.1369 20.4515 17.0811 20.4726C17.1887 18.7429 17.8222 17.1229 18.9019 15.8192C18.9272 15.8755 18.9604 15.9303 19.0042 15.9767L20.0282 17.061C20.1318 17.1706 20.2672 17.2255 20.4041 17.2255C20.5395 17.2255 20.6763 17.1706 20.7799 17.061C20.9871 16.8416 20.9871 16.4844 20.7799 16.265L19.7559 15.1808C19.7121 15.1344 19.6603 15.0993 19.6072 15.0725C20.8384 13.9292 22.3684 13.2585 24.0034 13.1446C23.9821 13.2036 23.9689 13.2669 23.9689 13.333V14.8658C23.9689 15.1766 24.2066 15.4283 24.5001 15.4283C24.7936 15.4283 25.0314 15.1766 25.0314 14.8658V13.333C25.0314 13.2669 25.0181 13.2036 24.9982 13.1446C26.6889 13.2627 28.2707 13.9771 29.5232 15.1935L24.6463 19.9127L22.3313 17.7724C22.1095 17.5685 21.7749 17.5924 21.5823 17.8258C21.3897 18.0593 21.4123 18.415 21.6328 18.6189L24.305 21.0897C24.4059 21.1825 24.5294 21.229 24.6542 21.229C24.7831 21.229 24.9119 21.1797 25.0128 21.0813L30.255 16.0089C31.2404 17.2787 31.8168 18.8256 31.9191 20.4711C31.8633 20.4514 31.8035 20.4373 31.7411 20.4373H30.2935C29.9999 20.4373 29.7622 20.6891 29.7622 20.9998C29.7622 21.3106 29.9999 21.5623 30.2935 21.5623H31.7411C31.8035 21.5623 31.8633 21.5483 31.9191 21.5272C31.8075 23.3019 31.1395 24.9163 30.0969 26.1777C30.0717 26.1214 30.0398 26.0694 29.9959 26.023L29.9958 26.0231Z" fill="#0E77AF"/>
<path fill-rule="evenodd" clip-rule="evenodd" d="M12 27.5C12 28.1667 11 28.1667 11 27.5C11 26.8333 12 26.8333 12 27.5Z" fill="#0E77AF"/>
</svg>
