<svg width="27" height="27" viewBox="0 0 27 27" fill="none" xmlns="http://www.w3.org/2000/svg">
<path fill-rule="evenodd" clip-rule="evenodd" d="M23.6814 4.66879C23.4564 4.38754 23.1752 4.10629 22.8939 3.82502C20.4752 1.46251 17.1563 0 13.5001 0C9.84395 0 6.52511 1.46251 4.10627 3.82502C3.82502 4.10627 3.54377 4.38752 3.31877 4.66879C1.23754 7.03131 0 10.125 0 13.5C0 16.875 1.2375 19.9689 3.2625 22.3312C3.4875 22.6125 3.76873 22.8937 4.05 23.175C6.46877 25.5375 9.84384 27 13.5 27C17.1562 27 20.5312 25.5375 22.95 23.1188C23.2313 22.8376 23.4562 22.6126 23.7375 22.275C25.7625 19.9688 27 16.875 27 13.5C27 10.125 25.7625 7.03113 23.6812 4.66879H23.6814ZM25.8752 12.9377H21.3191C21.2628 11.2502 20.7566 8.8315 19.9691 7.03149C20.9816 6.58148 21.9378 6.01898 22.8378 5.34398C24.5816 7.36899 25.7066 10.1252 25.8753 12.9379L25.8752 12.9377ZM14.0629 1.63146C15.7504 2.92523 17.3254 4.55647 18.3379 6.41264C16.9879 6.91888 15.7504 7.14388 14.0629 7.20015V1.63146ZM12.9379 7.20033C11.2504 7.14408 10.0129 6.86282 8.6629 6.41282C9.6754 4.55658 11.2504 2.86904 12.9379 1.63164V7.20033ZM12.9379 8.32533V12.9377H6.8629C6.91915 11.2502 7.36913 9.11266 8.15666 7.42533C9.67543 7.98783 11.2504 8.2691 12.9378 8.32533H12.9379ZM12.9379 14.063V18.5631C11.2504 18.6193 9.61913 18.9568 8.10022 19.5193C7.31272 17.8318 6.91898 16.3131 6.80645 14.0631L12.9379 14.063ZM12.9379 19.6881V25.3693C11.2504 24.0755 9.6754 22.388 8.60674 20.5316C9.95674 20.0253 11.2505 19.7441 12.9379 19.6878V19.6881ZM14.0629 19.6881C15.7504 19.7443 17.0441 20.0256 18.3941 20.5318C17.3253 22.4444 15.7503 24.0756 14.0629 25.3696V19.6881ZM14.0629 18.5631V14.063H20.1379C20.0816 16.3131 19.6317 17.8319 18.8441 19.5192C17.3816 18.9567 15.7504 18.6755 14.063 18.563L14.0629 18.5631ZM14.0629 12.938V8.32569C15.7504 8.26944 17.3254 7.93192 18.8441 7.42569C19.6316 9.1132 20.0816 11.2507 20.1378 12.938H14.0629ZM19.4067 6.01916C18.4505 4.21915 17.1005 2.64414 15.5256 1.3503C18.0006 1.6878 20.2506 2.86907 21.9944 4.50031C21.2069 5.11908 20.3069 5.56909 19.4069 6.01909L19.4067 6.01916ZM11.4756 1.29413C9.84434 2.58791 8.55058 4.21915 7.59442 5.963C6.69442 5.56923 5.79442 5.06299 5.00692 4.50049C6.75068 2.86925 9.00076 1.68798 11.4758 1.29424L11.4756 1.29413ZM4.21942 5.34416C5.11942 6.01916 6.07565 6.58166 7.08818 7.03167C6.24442 8.88791 5.79442 11.2505 5.73818 12.9379H1.12586C1.29461 10.1253 2.41963 7.36899 4.21963 5.34398L4.21942 5.34416ZM1.12565 14.063H5.68181C5.73806 16.3131 6.24431 18.1131 7.03181 19.9692C6.01931 20.4192 5.06304 20.9817 4.16304 21.6567C2.36304 19.5755 1.29427 16.8756 1.12554 14.0629L1.12565 14.063ZM7.53797 20.9254C8.4942 22.7254 9.8442 24.3566 11.4756 25.6504C8.94442 25.2567 6.69449 24.0754 4.95065 22.3879C5.79442 21.8254 6.63815 21.3754 7.53815 20.9254H7.53797ZM15.5256 25.7066C17.1569 24.3566 18.5069 22.7816 19.4633 20.9816C20.3633 21.3753 21.2633 21.8816 22.0508 22.4441C20.3071 24.1316 18.0008 25.2566 15.5258 25.7066H15.5256ZM22.838 21.6004C21.938 20.9254 20.9817 20.3629 19.9692 19.9129C20.7567 18.1129 21.263 16.2567 21.3192 14.0067H25.8754C25.7066 16.8755 24.6379 19.5756 22.8379 21.6006L22.838 21.6004Z" fill="#0E77AF"/>
</svg>
