<svg width="32" height="20" viewBox="0 0 32 20" fill="none" xmlns="http://www.w3.org/2000/svg">
<path fill-rule="evenodd" clip-rule="evenodd" d="M31.1556 9.78577C31.2313 15.0286 27.0128 19.437 21.7699 19.627C20.3642 19.6656 19.0342 19.3984 17.8187 18.9056C17.2101 18.6399 16.9444 17.917 17.2487 17.3099V17.2713C17.5144 16.777 18.123 16.5499 18.6173 16.777C19.7573 17.2713 21.0487 17.4613 22.4173 17.2713C25.7987 16.8156 28.4585 14.0413 28.8017 10.6601C29.2574 6.02447 25.3817 2.11009 20.7073 2.56571C17.3615 2.86853 14.5502 5.5671 14.1314 8.98695C14.0171 9.93695 14.0557 10.8483 14.2828 11.6856C14.3971 12.1042 14.2442 12.5213 13.9414 12.787C13.2957 13.357 12.27 13.0527 12.08 12.217C11.7757 10.9626 11.7 9.59556 11.9657 8.18819C12.7257 4.04695 16.1457 0.816952 20.3257 0.322572C26.1013 -0.361732 31.0801 4.12257 31.1557 9.78533L31.1556 9.78577ZM10.8628 19.9314C15.0428 19.4371 18.4628 16.2071 19.2228 12.0658C19.4885 10.6601 19.4128 9.29147 19.1085 8.00015C18.9185 7.16446 17.8928 6.82154 17.2471 7.43015C16.9428 7.69586 16.8285 8.11446 16.9057 8.53154C17.1343 9.40585 17.1714 10.3172 17.0571 11.2672C16.6014 14.6486 13.8271 17.3472 10.4071 17.6885C5.73273 18.1071 1.85711 14.2314 2.31273 9.59562C2.65414 6.21423 5.31412 3.44 8.69711 2.98438C10.0657 2.79438 11.3571 3.02297 12.4971 3.47868C13.0285 3.70728 13.5985 3.47868 13.8657 2.98438V2.94579C14.17 2.33718 13.9414 1.61579 13.2957 1.35009C11.89 0.780092 10.2943 0.514396 8.62134 0.704396C4.06134 1.15861 0.412579 4.92164 0.032579 9.5185C-0.460243 15.5985 4.70696 20.6529 10.8626 19.9313L10.8628 19.9314Z" fill="#0E77AF"/>
</svg>
