<svg width="23" height="23" viewBox="0 0 23 23" fill="none" xmlns="http://www.w3.org/2000/svg">
<path fill-rule="evenodd" clip-rule="evenodd" d="M17.6666 12.3336C15.6404 12.3336 13.8785 13.4628 12.9757 15.1281C11.8815 14.4605 10.8984 13.7944 10.3856 13.2816C9.75304 12.6491 8.88383 11.2979 8.07011 9.9058C9.62447 8.97382 10.6675 7.27788 10.6675 5.3334C10.6675 2.38848 8.27902 0 5.33377 0C2.38718 0 0 2.38836 0 5.3334C0 6.13098 0.179689 6.88474 0.493772 7.56399L0.467478 7.57422C0.467478 7.57422 3.44915 13.3867 7.11431 17.0518C10.9929 20.9302 15.0323 22.4039 15.8401 22.6713C16.4099 22.8802 17.0235 23 17.6662 23C20.6128 23 23 20.6116 23 17.6666C23 14.7216 20.6115 12.3332 17.6662 12.3332L17.6666 12.3336Z" fill="white"/>
</svg>
