<svg width="75" height="75" viewBox="0 0 75 75" fill="none" xmlns="http://www.w3.org/2000/svg">
<path fill-rule="evenodd" clip-rule="evenodd" d="M2.83077 30.1517C6.57955 30.8393 10.4061 31.2219 14.2323 31.2219C21.1201 31.2997 28.0078 29.9215 34.4349 27.3176V40.0975L38.9489 42.241L40.4795 43.0063L40.4825 27.3206C46.9099 29.9214 53.7973 31.2248 60.6851 31.1471C64.5116 31.1471 68.3382 30.7644 72.0866 30.0769C73.2346 29.8467 74.1523 28.9289 74.3825 27.781C74.6127 26.5552 73.9999 25.4073 73.0044 24.7975C67.9521 21.9665 63.6684 17.9875 60.3768 13.2398C59.764 12.3221 58.8462 11.7092 57.776 11.5568C56.7058 11.4043 55.5578 11.6345 54.7148 12.3221C50.4278 15.3833 45.6834 17.8317 40.6347 19.44V14.8482C44.539 13.1651 46.3745 8.648 44.6914 4.74693C42.9336 0.764965 38.4165 -0.995851 34.5151 0.612516C30.6109 2.22088 28.7753 6.81272 30.4584 10.7138C31.2237 12.5493 32.6766 14.0052 34.5151 14.7705V19.3624C29.4629 17.754 24.7185 15.3834 20.357 12.2444C19.5139 11.5568 18.366 11.3266 17.2958 11.4791C16.2255 11.6316 15.3047 12.2444 14.6949 13.1622C11.4035 17.9842 7.04188 21.8851 1.91509 24.794C0.844885 25.4069 0.306721 26.6296 0.536925 27.7775C0.764129 29.0032 1.6819 29.924 2.82986 30.1512L2.83077 30.1517Z" fill="#228ABB"/>
<path fill-rule="evenodd" clip-rule="evenodd" d="M40.5619 71.9387V59.6938L34.4395 56.8628V71.9386C34.4395 73.6216 35.8176 74.9998 37.5007 74.9998C39.1837 74.9998 40.5619 73.6216 40.5619 71.9386V71.9387Z" fill="#228ABB"/>
<path fill-rule="evenodd" clip-rule="evenodd" d="M42.8574 44.0053L49.8976 47.2967C53.5717 45.1532 54.7944 40.4867 52.654 36.8128C51.8886 35.5124 50.7407 34.4391 49.3625 33.7515C47.9844 32.8338 46.0711 33.2164 45.1533 34.5946C44.2356 35.9728 44.6182 37.886 45.9964 38.8038C46.2266 38.9563 46.4568 39.1087 46.7617 39.1864C47.527 39.5691 47.9097 40.5646 47.527 41.3299C47.3745 41.6348 47.0666 41.9428 46.7617 42.0952L42.8574 44.0053Z" fill="#B4141B"/>
<path fill-rule="evenodd" clip-rule="evenodd" d="M25.6384 65.9686C27.2468 66.5038 29.0045 65.6637 29.5427 64.0554C30.0031 62.6772 29.465 61.2244 28.2423 60.4591C27.477 60.0764 27.0943 59.0809 27.477 58.3156C27.6294 58.0107 27.9373 57.7027 28.2423 57.5503L32.1466 55.7148L25.1064 52.4233C21.4323 54.5668 20.2096 59.2333 22.35 62.9073C23.0376 64.2077 24.2603 65.2809 25.6385 65.9685L25.6384 65.9686Z" fill="#B4141B"/>
<path fill-rule="evenodd" clip-rule="evenodd" d="M28.2391 39.261C29.8475 38.7259 30.7652 37.0429 30.2301 35.4345C29.695 33.8261 28.0119 32.9084 26.4036 33.4435C26.1734 33.5212 25.8685 33.6737 25.6383 33.8261C21.8117 35.6616 20.2034 40.1788 21.9642 44.0055C22.7295 45.6138 24.0299 46.9142 25.6383 47.6796L34.4393 51.811L46.6842 57.6285C47.4495 58.0112 47.8321 59.0067 47.4495 59.772C47.297 60.0769 46.9891 60.3848 46.6842 60.5373C45.0758 61.0724 44.1581 62.7555 44.6932 64.3638C45.2283 65.9722 46.9113 66.89 48.5197 66.3549C48.7499 66.2771 49.0548 66.1247 49.285 65.9722C53.1115 64.1367 54.7199 59.6196 52.9591 55.7929C52.1938 54.1845 50.8934 52.8841 49.285 52.1188L37.0401 46.379L28.2391 42.2476C27.4738 41.8649 27.0911 40.8694 27.4738 40.1041C27.6292 39.7185 27.8564 39.4135 28.2391 39.261Z" fill="#B4141B"/>
</svg>
