<svg width="24" height="24" viewBox="0 0 24 24" fill="none" xmlns="http://www.w3.org/2000/svg">
<path fill-rule="evenodd" clip-rule="evenodd" d="M12 6C8.7 6 6 8.7 6 12C6 15.3 8.7 18 12 18H18C21.3 18 24 15.3 24 12C24 5.3694 18.6306 0 12 0C5.3694 0 0 5.3694 0 12C0 18.6306 5.3694 24 12 24H24V21H12C7.0194 21 3 16.9806 3 12C3 7.0194 7.0194 3 12 3C16.9806 3 21 7.0194 21 12C21 13.65 19.65 15 18 15H17.1598C17.6695 14.1 18 13.1098 18 12C18 8.7 15.3 6 12 6ZM12 15C10.35 15 9 13.65 9 12C9 10.35 10.35 9 12 9C13.65 9 15 10.35 15 12C15 13.65 13.65 15 12 15Z" fill="white"/>
</svg>
