<svg width="23" height="33" viewBox="0 0 23 33" fill="none" xmlns="http://www.w3.org/2000/svg">
<path fill-rule="evenodd" clip-rule="evenodd" d="M11.2893 28.008C10.7082 28.008 10.2362 28.48 10.2362 29.0612C10.2362 29.6424 10.7082 30.116 11.2893 30.116C11.8722 30.116 12.3442 29.644 12.3442 29.0612C12.3425 28.48 11.8705 28.008 11.2893 28.008ZM11.0525 29.0612C11.0525 28.9318 11.1583 28.826 11.2877 28.826C11.4187 28.826 11.5245 28.9318 11.5245 29.0612C11.5245 29.3199 11.0525 29.3232 11.0525 29.0612H11.0525ZM19.6491 0.10498H2.92937C1.31352 0.10498 0 1.4185 0 3.03436V30.0706C0 31.6865 1.31352 33 2.92937 33H19.6473C21.2632 33 22.5767 31.6865 22.5767 30.0706L22.5784 3.03436C22.5784 1.4185 21.2632 0.10498 19.649 0.10498H19.6491ZM21.2884 30.0708C21.2884 30.9762 20.5528 31.7102 19.6491 31.7102H2.92937C2.02569 31.7102 1.29 30.9745 1.29 30.0708L1.29168 3.03457C1.29168 2.13089 2.02737 1.3952 2.93106 1.3952H19.649C20.5527 1.3952 21.2884 2.13089 21.2884 3.03457L21.2884 30.0708ZM18.6379 2.81957H3.94048C3.28541 2.81957 2.75295 3.35204 2.75295 4.00711V25.2285C2.75295 25.8819 3.28541 26.416 3.94048 26.416L18.6379 26.4143C19.2913 26.4143 19.8254 25.8818 19.8254 25.2268V4.00714C19.8254 3.35208 19.2913 2.81961 18.6379 2.81961V2.81957ZM18.5354 25.1241H4.04313V4.10957H18.5354V25.1241Z" fill="#FBA518"/>
</svg>
