<svg width="16" height="16" viewBox="0 0 16 16" fill="none" xmlns="http://www.w3.org/2000/svg">
<path fill-rule="evenodd" clip-rule="evenodd" d="M0 8C0 3.582 3.582 0 8 0C12.418 0 16 3.582 16 8C16 12.418 12.418 16 8 16C3.582 16 0 12.418 0 8ZM6.60133 12.126C10.1573 12.126 12.166 9.12333 12.044 6.43C12.4193 6.16 12.7433 5.82267 12.9993 5.43733C12.6567 5.59 12.2873 5.69267 11.9 5.73933C12.2953 5.502 12.5987 5.12733 12.742 4.68C12.3727 4.89933 11.962 5.05933 11.526 5.14467C11.1767 4.77267 10.6787 4.54 10.1287 4.54C8.892 4.54 7.98333 5.694 8.26267 6.89133C6.67133 6.81133 5.26 6.04933 4.316 4.89067C3.81467 5.75133 4.056 6.87733 4.90867 7.44733C4.59467 7.43733 4.3 7.35133 4.04133 7.208C4.02067 8.09533 4.65667 8.92467 5.57733 9.11C5.30867 9.18333 5.01267 9.2 4.712 9.14267C4.95667 9.90333 5.664 10.4573 6.50133 10.4727C5.69667 11.1027 4.68267 11.3853 3.66667 11.2653C4.514 11.8087 5.52 12.126 6.60133 12.126Z" fill="white"/>
</svg>
